<mxfile host="Electron" agent="Mozilla/5.0 (X11; Linux x86_64) AppleWebKit/537.36 (KHTML, like Gecko) draw.io/24.7.17 Chrome/128.0.6613.36 Electron/32.0.1 Safari/537.36" version="24.7.17" pages="2">
  <diagram name="Page-1" id="Av2H3jCLVWurhc3fHGHt">
    <mxGraphModel dx="2074" dy="1230" grid="1" gridSize="10" guides="1" tooltips="1" connect="1" arrows="1" fold="1" page="1" pageScale="1" pageWidth="850" pageHeight="1100" math="0" shadow="0">
      <root>
        <mxCell id="0" />
        <mxCell id="1" parent="0" />
        <mxCell id="qWnU1BvHw31_mJI-Ao4T-3" value="" style="edgeStyle=orthogonalEdgeStyle;rounded=0;orthogonalLoop=1;jettySize=auto;html=1;elbow=vertical;curved=1;entryX=0;entryY=0.5;entryDx=0;entryDy=0;" edge="1" parent="1" source="qWnU1BvHw31_mJI-Ao4T-1" target="qWnU1BvHw31_mJI-Ao4T-2">
          <mxGeometry relative="1" as="geometry" />
        </mxCell>
        <mxCell id="qWnU1BvHw31_mJI-Ao4T-5" value="" style="edgeStyle=orthogonalEdgeStyle;rounded=0;orthogonalLoop=1;jettySize=auto;html=1;curved=1;entryX=0;entryY=0.5;entryDx=0;entryDy=0;exitX=1;exitY=0.5;exitDx=0;exitDy=0;" edge="1" parent="1" source="s3qMUJ_-m6V6u2KhGY3L-7" target="qWnU1BvHw31_mJI-Ao4T-13">
          <mxGeometry relative="1" as="geometry">
            <mxPoint x="400" y="420" as="targetPoint" />
          </mxGeometry>
        </mxCell>
        <mxCell id="s3qMUJ_-m6V6u2KhGY3L-8" style="edgeStyle=orthogonalEdgeStyle;rounded=0;orthogonalLoop=1;jettySize=auto;html=1;curved=1;" edge="1" parent="1" source="qWnU1BvHw31_mJI-Ao4T-1" target="s3qMUJ_-m6V6u2KhGY3L-7">
          <mxGeometry relative="1" as="geometry" />
        </mxCell>
        <mxCell id="qWnU1BvHw31_mJI-Ao4T-1" value="ZbxWizz" style="rounded=1;whiteSpace=wrap;html=1;" vertex="1" parent="1">
          <mxGeometry x="110" y="290" width="120" height="60" as="geometry" />
        </mxCell>
        <mxCell id="qWnU1BvHw31_mJI-Ao4T-8" value="" style="edgeStyle=orthogonalEdgeStyle;rounded=0;orthogonalLoop=1;jettySize=auto;html=1;curved=1;entryX=0;entryY=0.5;entryDx=0;entryDy=0;" edge="1" parent="1" source="qWnU1BvHw31_mJI-Ao4T-2" target="qWnU1BvHw31_mJI-Ao4T-6">
          <mxGeometry relative="1" as="geometry" />
        </mxCell>
        <mxCell id="qWnU1BvHw31_mJI-Ao4T-10" style="edgeStyle=orthogonalEdgeStyle;rounded=0;orthogonalLoop=1;jettySize=auto;html=1;curved=1;entryX=0;entryY=0.5;entryDx=0;entryDy=0;" edge="1" parent="1" source="qWnU1BvHw31_mJI-Ao4T-2" target="qWnU1BvHw31_mJI-Ao4T-9">
          <mxGeometry relative="1" as="geometry" />
        </mxCell>
        <mxCell id="qWnU1BvHw31_mJI-Ao4T-12" style="edgeStyle=orthogonalEdgeStyle;rounded=0;orthogonalLoop=1;jettySize=auto;html=1;curved=1;entryX=0;entryY=0.5;entryDx=0;entryDy=0;" edge="1" parent="1" source="qWnU1BvHw31_mJI-Ao4T-2" target="qWnU1BvHw31_mJI-Ao4T-11">
          <mxGeometry relative="1" as="geometry" />
        </mxCell>
        <mxCell id="qWnU1BvHw31_mJI-Ao4T-2" value="Data Import" style="rounded=1;whiteSpace=wrap;html=1;" vertex="1" parent="1">
          <mxGeometry x="390" y="180" width="120" height="60" as="geometry" />
        </mxCell>
        <mxCell id="qWnU1BvHw31_mJI-Ao4T-6" value="CSV Import" style="rounded=1;whiteSpace=wrap;html=1;" vertex="1" parent="1">
          <mxGeometry x="570" y="60" width="120" height="60" as="geometry" />
        </mxCell>
        <mxCell id="qWnU1BvHw31_mJI-Ao4T-9" value="Zabbix Import" style="rounded=1;whiteSpace=wrap;html=1;" vertex="1" parent="1">
          <mxGeometry x="610" y="180" width="120" height="60" as="geometry" />
        </mxCell>
        <mxCell id="qWnU1BvHw31_mJI-Ao4T-11" value="JavaScript Code Import" style="rounded=1;whiteSpace=wrap;html=1;" vertex="1" parent="1">
          <mxGeometry x="570" y="280" width="120" height="60" as="geometry" />
        </mxCell>
        <mxCell id="s3qMUJ_-m6V6u2KhGY3L-2" value="" style="edgeStyle=orthogonalEdgeStyle;rounded=0;orthogonalLoop=1;jettySize=auto;html=1;curved=1;" edge="1" parent="1" source="qWnU1BvHw31_mJI-Ao4T-13" target="s3qMUJ_-m6V6u2KhGY3L-1">
          <mxGeometry relative="1" as="geometry" />
        </mxCell>
        <mxCell id="s3qMUJ_-m6V6u2KhGY3L-4" style="edgeStyle=orthogonalEdgeStyle;rounded=0;orthogonalLoop=1;jettySize=auto;html=1;curved=1;exitX=1;exitY=0.5;exitDx=0;exitDy=0;" edge="1" parent="1" source="qWnU1BvHw31_mJI-Ao4T-13" target="s3qMUJ_-m6V6u2KhGY3L-3">
          <mxGeometry relative="1" as="geometry" />
        </mxCell>
        <mxCell id="s3qMUJ_-m6V6u2KhGY3L-6" style="edgeStyle=orthogonalEdgeStyle;rounded=0;orthogonalLoop=1;jettySize=auto;html=1;curved=1;entryX=0;entryY=0.5;entryDx=0;entryDy=0;" edge="1" parent="1" source="qWnU1BvHw31_mJI-Ao4T-13" target="s3qMUJ_-m6V6u2KhGY3L-5">
          <mxGeometry relative="1" as="geometry" />
        </mxCell>
        <mxCell id="s3qMUJ_-m6V6u2KhGY3L-18" style="edgeStyle=orthogonalEdgeStyle;shape=connector;curved=1;rounded=0;orthogonalLoop=1;jettySize=auto;html=1;strokeColor=default;align=center;verticalAlign=middle;fontFamily=Helvetica;fontSize=11;fontColor=default;labelBackgroundColor=default;endArrow=classic;entryX=0;entryY=0.5;entryDx=0;entryDy=0;" edge="1" parent="1" source="qWnU1BvHw31_mJI-Ao4T-13" target="s3qMUJ_-m6V6u2KhGY3L-17">
          <mxGeometry relative="1" as="geometry" />
        </mxCell>
        <mxCell id="qWnU1BvHw31_mJI-Ao4T-13" value="Worksheets" style="rounded=1;whiteSpace=wrap;html=1;" vertex="1" parent="1">
          <mxGeometry x="440" y="490" width="120" height="60" as="geometry" />
        </mxCell>
        <mxCell id="s3qMUJ_-m6V6u2KhGY3L-1" value="New sheet" style="rounded=1;whiteSpace=wrap;html=1;" vertex="1" parent="1">
          <mxGeometry x="590" y="400" width="120" height="60" as="geometry" />
        </mxCell>
        <mxCell id="s3qMUJ_-m6V6u2KhGY3L-3" value="Rename" style="rounded=1;whiteSpace=wrap;html=1;" vertex="1" parent="1">
          <mxGeometry x="580" y="560" width="120" height="60" as="geometry" />
        </mxCell>
        <mxCell id="s3qMUJ_-m6V6u2KhGY3L-5" value="Rearange" style="rounded=1;whiteSpace=wrap;html=1;" vertex="1" parent="1">
          <mxGeometry x="780" y="430" width="120" height="60" as="geometry" />
        </mxCell>
        <mxCell id="s3qMUJ_-m6V6u2KhGY3L-10" style="edgeStyle=orthogonalEdgeStyle;rounded=0;orthogonalLoop=1;jettySize=auto;html=1;curved=1;entryX=0;entryY=0.5;entryDx=0;entryDy=0;" edge="1" parent="1" source="s3qMUJ_-m6V6u2KhGY3L-7" target="s3qMUJ_-m6V6u2KhGY3L-9">
          <mxGeometry relative="1" as="geometry" />
        </mxCell>
        <mxCell id="s3qMUJ_-m6V6u2KhGY3L-22" value="" style="edgeStyle=orthogonalEdgeStyle;shape=connector;curved=1;rounded=0;orthogonalLoop=1;jettySize=auto;html=1;strokeColor=default;align=center;verticalAlign=middle;fontFamily=Helvetica;fontSize=11;fontColor=default;labelBackgroundColor=default;endArrow=classic;" edge="1" parent="1" source="s3qMUJ_-m6V6u2KhGY3L-7" target="s3qMUJ_-m6V6u2KhGY3L-21">
          <mxGeometry relative="1" as="geometry" />
        </mxCell>
        <mxCell id="s3qMUJ_-m6V6u2KhGY3L-7" value="Visualisation" style="rounded=1;whiteSpace=wrap;html=1;" vertex="1" parent="1">
          <mxGeometry x="260" y="460" width="120" height="60" as="geometry" />
        </mxCell>
        <mxCell id="s3qMUJ_-m6V6u2KhGY3L-12" value="" style="edgeStyle=orthogonalEdgeStyle;rounded=0;orthogonalLoop=1;jettySize=auto;html=1;curved=1;" edge="1" parent="1" source="s3qMUJ_-m6V6u2KhGY3L-9" target="s3qMUJ_-m6V6u2KhGY3L-11">
          <mxGeometry relative="1" as="geometry" />
        </mxCell>
        <mxCell id="s3qMUJ_-m6V6u2KhGY3L-14" style="edgeStyle=orthogonalEdgeStyle;rounded=0;orthogonalLoop=1;jettySize=auto;html=1;curved=1;" edge="1" parent="1" source="s3qMUJ_-m6V6u2KhGY3L-9" target="s3qMUJ_-m6V6u2KhGY3L-13">
          <mxGeometry relative="1" as="geometry" />
        </mxCell>
        <mxCell id="s3qMUJ_-m6V6u2KhGY3L-16" style="edgeStyle=orthogonalEdgeStyle;rounded=0;orthogonalLoop=1;jettySize=auto;html=1;curved=1;entryX=0;entryY=0.5;entryDx=0;entryDy=0;" edge="1" parent="1" source="s3qMUJ_-m6V6u2KhGY3L-9" target="s3qMUJ_-m6V6u2KhGY3L-15">
          <mxGeometry relative="1" as="geometry" />
        </mxCell>
        <mxCell id="s3qMUJ_-m6V6u2KhGY3L-20" style="edgeStyle=orthogonalEdgeStyle;shape=connector;curved=1;rounded=0;orthogonalLoop=1;jettySize=auto;html=1;strokeColor=default;align=center;verticalAlign=middle;fontFamily=Helvetica;fontSize=11;fontColor=default;labelBackgroundColor=default;endArrow=classic;entryX=0;entryY=0.5;entryDx=0;entryDy=0;" edge="1" parent="1" source="s3qMUJ_-m6V6u2KhGY3L-9" target="s3qMUJ_-m6V6u2KhGY3L-19">
          <mxGeometry relative="1" as="geometry" />
        </mxCell>
        <mxCell id="s3qMUJ_-m6V6u2KhGY3L-9" value="Columns" style="rounded=1;whiteSpace=wrap;html=1;" vertex="1" parent="1">
          <mxGeometry x="460" y="740" width="120" height="60" as="geometry" />
        </mxCell>
        <mxCell id="s3qMUJ_-m6V6u2KhGY3L-11" value="New column" style="rounded=1;whiteSpace=wrap;html=1;" vertex="1" parent="1">
          <mxGeometry x="610" y="660" width="120" height="60" as="geometry" />
        </mxCell>
        <mxCell id="s3qMUJ_-m6V6u2KhGY3L-13" value="Rename" style="rounded=1;whiteSpace=wrap;html=1;" vertex="1" parent="1">
          <mxGeometry x="600" y="820" width="120" height="60" as="geometry" />
        </mxCell>
        <mxCell id="s3qMUJ_-m6V6u2KhGY3L-15" value="Reorder" style="rounded=1;whiteSpace=wrap;html=1;" vertex="1" parent="1">
          <mxGeometry x="770" y="710" width="120" height="60" as="geometry" />
        </mxCell>
        <mxCell id="s3qMUJ_-m6V6u2KhGY3L-17" value="Delete" style="rounded=1;whiteSpace=wrap;html=1;fontFamily=Helvetica;fontSize=11;fontColor=default;labelBackgroundColor=default;" vertex="1" parent="1">
          <mxGeometry x="790" y="520" width="120" height="60" as="geometry" />
        </mxCell>
        <mxCell id="s3qMUJ_-m6V6u2KhGY3L-19" value="Delete" style="rounded=1;whiteSpace=wrap;html=1;fontFamily=Helvetica;fontSize=11;fontColor=default;labelBackgroundColor=default;" vertex="1" parent="1">
          <mxGeometry x="770" y="780" width="120" height="60" as="geometry" />
        </mxCell>
        <mxCell id="s3qMUJ_-m6V6u2KhGY3L-21" value="Records" style="rounded=1;whiteSpace=wrap;html=1;" vertex="1" parent="1">
          <mxGeometry x="320" y="860" width="120" height="60" as="geometry" />
        </mxCell>
      </root>
    </mxGraphModel>
  </diagram>
  <diagram id="MKlYqwlyeha4wA6UxEMA" name="Page-2">
    <mxGraphModel dx="2074" dy="1230" grid="1" gridSize="10" guides="1" tooltips="1" connect="1" arrows="1" fold="1" page="1" pageScale="1" pageWidth="850" pageHeight="1100" math="0" shadow="0">
      <root>
        <mxCell id="0" />
        <mxCell id="1" parent="0" />
        <mxCell id="WYWlZoJnVYIuMHqE-FYC-4" style="edgeStyle=orthogonalEdgeStyle;rounded=0;orthogonalLoop=1;jettySize=auto;html=1;exitX=0.5;exitY=1;exitDx=0;exitDy=0;entryX=0.5;entryY=0;entryDx=0;entryDy=0;curved=1;" edge="1" parent="1" source="WYWlZoJnVYIuMHqE-FYC-2" target="WYWlZoJnVYIuMHqE-FYC-8">
          <mxGeometry relative="1" as="geometry" />
        </mxCell>
        <mxCell id="WYWlZoJnVYIuMHqE-FYC-5" value="Import" style="edgeLabel;html=1;align=center;verticalAlign=middle;resizable=0;points=[];" vertex="1" connectable="0" parent="WYWlZoJnVYIuMHqE-FYC-4">
          <mxGeometry y="-5" relative="1" as="geometry">
            <mxPoint as="offset" />
          </mxGeometry>
        </mxCell>
        <mxCell id="WYWlZoJnVYIuMHqE-FYC-2" value="CSV/XLS" style="rounded=1;whiteSpace=wrap;html=1;" vertex="1" parent="1">
          <mxGeometry x="40" y="120" width="120" height="60" as="geometry" />
        </mxCell>
        <mxCell id="WYWlZoJnVYIuMHqE-FYC-9" style="edgeStyle=orthogonalEdgeStyle;rounded=0;orthogonalLoop=1;jettySize=auto;html=1;curved=1;exitX=0.5;exitY=1;exitDx=0;exitDy=0;" edge="1" parent="1" source="WYWlZoJnVYIuMHqE-FYC-6" target="WYWlZoJnVYIuMHqE-FYC-8">
          <mxGeometry relative="1" as="geometry" />
        </mxCell>
        <mxCell id="WYWlZoJnVYIuMHqE-FYC-13" value="Import" style="edgeLabel;html=1;align=center;verticalAlign=middle;resizable=0;points=[];" vertex="1" connectable="0" parent="WYWlZoJnVYIuMHqE-FYC-9">
          <mxGeometry x="-0.1778" y="-6" relative="1" as="geometry">
            <mxPoint as="offset" />
          </mxGeometry>
        </mxCell>
        <mxCell id="WYWlZoJnVYIuMHqE-FYC-6" value="Zabbix&lt;br&gt;(API)" style="rounded=1;whiteSpace=wrap;html=1;" vertex="1" parent="1">
          <mxGeometry x="230" y="110" width="120" height="60" as="geometry" />
        </mxCell>
        <mxCell id="WYWlZoJnVYIuMHqE-FYC-10" style="edgeStyle=orthogonalEdgeStyle;rounded=0;orthogonalLoop=1;jettySize=auto;html=1;entryX=0.5;entryY=0;entryDx=0;entryDy=0;curved=1;exitX=0.5;exitY=1;exitDx=0;exitDy=0;" edge="1" parent="1" source="WYWlZoJnVYIuMHqE-FYC-7" target="WYWlZoJnVYIuMHqE-FYC-8">
          <mxGeometry relative="1" as="geometry" />
        </mxCell>
        <mxCell id="WYWlZoJnVYIuMHqE-FYC-14" value="Import" style="edgeLabel;html=1;align=center;verticalAlign=middle;resizable=0;points=[];" vertex="1" connectable="0" parent="WYWlZoJnVYIuMHqE-FYC-10">
          <mxGeometry x="-0.0909" y="2" relative="1" as="geometry">
            <mxPoint as="offset" />
          </mxGeometry>
        </mxCell>
        <mxCell id="WYWlZoJnVYIuMHqE-FYC-7" value="JavaScript &lt;br&gt;script output" style="rounded=1;whiteSpace=wrap;html=1;" vertex="1" parent="1">
          <mxGeometry x="390" y="120" width="120" height="60" as="geometry" />
        </mxCell>
        <mxCell id="WYWlZoJnVYIuMHqE-FYC-8" value="Zabbix&lt;br&gt;(API)" style="rounded=1;whiteSpace=wrap;html=1;" vertex="1" parent="1">
          <mxGeometry x="210" y="290" width="120" height="60" as="geometry" />
        </mxCell>
      </root>
    </mxGraphModel>
  </diagram>
</mxfile>
